<svg xmlns="http://www.w3.org/2000/svg" width="375" viewBox="0 0 375 375" height="375" version="1.0"><defs><clipPath id="a"><path d="M 94.859375 94.859375 L 280.109375 94.859375 L 280.109375 280.109375 L 94.859375 280.109375 Z M 94.859375 94.859375"/></clipPath></defs><path fill="#FFF" d="M-37.5 -37.5H412.5V412.5H-37.5z"/><path fill="#FFF" d="M-37.5 -37.5H412.5V412.5H-37.5z"/><path d="M-37.5 -37.5H412.5V412.5H-37.5z"/><g clip-path="url(#a)"><path fill="#D9D9D9" d="M 114.996094 187.484375 L 136.570312 209.058594 L 126.5 219.125 L 94.859375 187.484375 L 126.359375 155.988281 L 136.425781 166.054688 Z M 187.484375 114.996094 L 219.417969 146.925781 L 207.910156 158.433594 L 187.484375 138.007812 L 177.5625 147.933594 L 208.050781 178.425781 L 239.550781 146.925781 L 187.484375 94.859375 L 136.425781 145.917969 L 219.554688 229.050781 L 188.058594 260.546875 L 156.988281 229.480469 L 168.496094 217.972656 L 188.199219 237.675781 L 198.125 227.753906 L 168.355469 197.984375 L 136.859375 229.484375 L 187.484375 280.109375 L 238.542969 229.050781 L 155.988281 146.492188 Z M 147.933594 177.5625 L 138.007812 187.484375 L 148.074219 197.550781 L 158 187.628906 Z M 227.757812 198.128906 L 237.679688 188.203125 L 227.613281 178.136719 L 217.691406 188.0625 Z M 249.1875 156.5625 L 239.121094 166.628906 L 260.550781 188.0625 L 239.121094 209.492188 L 248.617188 218.988281 L 280.113281 187.488281 Z M 249.1875 156.5625"/></g></svg>