<svg xmlns="http://www.w3.org/2000/svg" width="375" viewBox="0 0 375 375" height="375" version="1.0"><defs><clipPath id="a"><path d="M 85.789062 151.058594 L 158.539062 151.058594 L 158.539062 223.808594 L 85.789062 223.808594 Z M 85.789062 151.058594"/></clipPath></defs><path fill="#FFF" d="M-37.5 -37.5H412.5V412.5H-37.5z"/><path fill="#FFF" d="M-37.5 -37.5H412.5V412.5H-37.5z"/><path d="M-37.5 -37.5H412.5V412.5H-37.5z"/><g clip-path="url(#a)"><path fill="#D9D9D9" d="M 93.695312 187.433594 L 102.167969 195.90625 L 98.214844 199.859375 L 85.789062 187.433594 L 98.160156 175.0625 L 102.113281 179.015625 Z M 122.164062 158.964844 L 134.703125 171.503906 L 130.1875 176.023438 L 122.164062 168.003906 L 118.269531 171.902344 L 130.242188 183.875 L 142.613281 171.503906 L 122.164062 151.058594 L 102.113281 171.109375 L 134.761719 203.757812 L 122.390625 216.125 L 110.1875 203.925781 L 114.707031 199.40625 L 122.445312 207.144531 L 126.34375 203.246094 L 114.652344 191.558594 L 102.285156 203.925781 L 122.164062 223.808594 L 142.21875 203.757812 L 109.796875 171.335938 Z M 106.632812 183.535156 L 102.734375 187.433594 L 106.6875 191.386719 L 110.585938 187.488281 Z M 137.980469 191.613281 L 141.878906 187.714844 L 137.925781 183.761719 L 134.027344 187.660156 Z M 146.398438 175.289062 L 142.441406 179.242188 L 150.859375 187.660156 L 142.441406 196.078125 L 146.171875 199.804688 L 158.542969 187.433594 Z M 146.398438 175.289062"/></g><g fill="#D9D9D9"><g><g><path d="M 5.515625 0.21875 C 4.546875 0.21875 3.601562 0.0859375 2.6875 -0.171875 C 1.78125 -0.441406 1.050781 -0.789062 0.5 -1.21875 L 1.46875 -3.375 C 2 -2.976562 2.628906 -2.660156 3.359375 -2.421875 C 4.085938 -2.191406 4.816406 -2.078125 5.546875 -2.078125 C 6.347656 -2.078125 6.941406 -2.195312 7.328125 -2.4375 C 7.722656 -2.6875 7.921875 -3.007812 7.921875 -3.40625 C 7.921875 -3.695312 7.804688 -3.9375 7.578125 -4.125 C 7.347656 -4.320312 7.050781 -4.476562 6.6875 -4.59375 C 6.332031 -4.71875 5.847656 -4.851562 5.234375 -5 C 4.296875 -5.21875 3.523438 -5.4375 2.921875 -5.65625 C 2.328125 -5.882812 1.8125 -6.242188 1.375 -6.734375 C 0.945312 -7.234375 0.734375 -7.894531 0.734375 -8.71875 C 0.734375 -9.4375 0.925781 -10.082031 1.3125 -10.65625 C 1.707031 -11.238281 2.296875 -11.703125 3.078125 -12.046875 C 3.859375 -12.390625 4.8125 -12.5625 5.9375 -12.5625 C 6.726562 -12.5625 7.5 -12.46875 8.25 -12.28125 C 9.007812 -12.09375 9.671875 -11.820312 10.234375 -11.46875 L 9.34375 -9.296875 C 8.207031 -9.941406 7.066406 -10.265625 5.921875 -10.265625 C 5.128906 -10.265625 4.539062 -10.132812 4.15625 -9.875 C 3.769531 -9.613281 3.578125 -9.273438 3.578125 -8.859375 C 3.578125 -8.429688 3.796875 -8.113281 4.234375 -7.90625 C 4.679688 -7.707031 5.359375 -7.503906 6.265625 -7.296875 C 7.203125 -7.078125 7.96875 -6.851562 8.5625 -6.625 C 9.164062 -6.40625 9.679688 -6.050781 10.109375 -5.5625 C 10.546875 -5.082031 10.765625 -4.429688 10.765625 -3.609375 C 10.765625 -2.910156 10.566406 -2.269531 10.171875 -1.6875 C 9.773438 -1.101562 9.179688 -0.640625 8.390625 -0.296875 C 7.609375 0.046875 6.648438 0.21875 5.515625 0.21875 Z M 5.515625 0.21875" transform="translate(165.207 181.5)"/></g></g></g><g fill="#D9D9D9"><g><g><path d="M 14.8125 1.328125 C 14.414062 1.816406 13.929688 2.191406 13.359375 2.453125 C 12.785156 2.710938 12.160156 2.84375 11.484375 2.84375 C 10.566406 2.84375 9.738281 2.644531 9 2.25 C 8.257812 1.851562 7.410156 1.15625 6.453125 0.15625 C 5.335938 0.0195312 4.34375 -0.332031 3.46875 -0.90625 C 2.59375 -1.488281 1.910156 -2.234375 1.421875 -3.140625 C 0.929688 -4.054688 0.6875 -5.066406 0.6875 -6.171875 C 0.6875 -7.378906 0.976562 -8.46875 1.5625 -9.4375 C 2.144531 -10.414062 2.945312 -11.179688 3.96875 -11.734375 C 5 -12.285156 6.15625 -12.5625 7.4375 -12.5625 C 8.71875 -12.5625 9.867188 -12.285156 10.890625 -11.734375 C 11.921875 -11.179688 12.726562 -10.414062 13.3125 -9.4375 C 13.90625 -8.46875 14.203125 -7.378906 14.203125 -6.171875 C 14.203125 -4.734375 13.796875 -3.472656 12.984375 -2.390625 C 12.179688 -1.316406 11.117188 -0.566406 9.796875 -0.140625 C 10.085938 0.160156 10.367188 0.378906 10.640625 0.515625 C 10.921875 0.648438 11.21875 0.71875 11.53125 0.71875 C 12.300781 0.71875 12.972656 0.414062 13.546875 -0.1875 Z M 3.578125 -6.171875 C 3.578125 -5.410156 3.742188 -4.726562 4.078125 -4.125 C 4.421875 -3.53125 4.882812 -3.0625 5.46875 -2.71875 C 6.050781 -2.382812 6.707031 -2.21875 7.4375 -2.21875 C 8.164062 -2.21875 8.820312 -2.382812 9.40625 -2.71875 C 10 -3.0625 10.460938 -3.53125 10.796875 -4.125 C 11.140625 -4.726562 11.3125 -5.410156 11.3125 -6.171875 C 11.3125 -6.941406 11.140625 -7.625 10.796875 -8.21875 C 10.460938 -8.820312 10 -9.289062 9.40625 -9.625 C 8.820312 -9.957031 8.164062 -10.125 7.4375 -10.125 C 6.707031 -10.125 6.050781 -9.957031 5.46875 -9.625 C 4.882812 -9.289062 4.421875 -8.820312 4.078125 -8.21875 C 3.742188 -7.625 3.578125 -6.941406 3.578125 -6.171875 Z M 3.578125 -6.171875" transform="translate(178.048 181.5)"/></g></g></g><g fill="#D9D9D9"><g><g><path d="M 6.953125 0.21875 C 5.179688 0.21875 3.804688 -0.269531 2.828125 -1.25 C 1.847656 -2.226562 1.359375 -3.625 1.359375 -5.4375 L 1.359375 -12.34375 L 4.21875 -12.34375 L 4.21875 -5.546875 C 4.21875 -3.328125 5.132812 -2.21875 6.96875 -2.21875 C 7.863281 -2.21875 8.546875 -2.484375 9.015625 -3.015625 C 9.484375 -3.554688 9.71875 -4.398438 9.71875 -5.546875 L 9.71875 -12.34375 L 12.546875 -12.34375 L 12.546875 -5.4375 C 12.546875 -3.625 12.050781 -2.226562 11.0625 -1.25 C 10.082031 -0.269531 8.710938 0.21875 6.953125 0.21875 Z M 6.953125 0.21875" transform="translate(194.522 181.5)"/></g></g></g><g fill="#D9D9D9"><g><g><path d="M 9.59375 -2.640625 L 3.859375 -2.640625 L 2.765625 0 L -0.15625 0 L 5.34375 -12.34375 L 8.171875 -12.34375 L 13.6875 0 L 10.6875 0 Z M 8.703125 -4.8125 L 6.734375 -9.546875 L 4.78125 -4.8125 Z M 8.703125 -4.8125" transform="translate(210.008 181.5)"/></g></g></g><g fill="#D9D9D9"><g><g><path d="M 9.328125 0 L 6.953125 -3.4375 L 4.328125 -3.4375 L 4.328125 0 L 1.46875 0 L 1.46875 -12.34375 L 6.8125 -12.34375 C 7.90625 -12.34375 8.851562 -12.160156 9.65625 -11.796875 C 10.457031 -11.429688 11.078125 -10.914062 11.515625 -10.25 C 11.953125 -9.582031 12.171875 -8.789062 12.171875 -7.875 C 12.171875 -6.945312 11.945312 -6.148438 11.5 -5.484375 C 11.0625 -4.828125 10.4375 -4.320312 9.625 -3.96875 L 12.40625 0 Z M 9.28125 -7.875 C 9.28125 -8.5625 9.054688 -9.085938 8.609375 -9.453125 C 8.160156 -9.828125 7.507812 -10.015625 6.65625 -10.015625 L 4.328125 -10.015625 L 4.328125 -5.71875 L 6.65625 -5.71875 C 7.507812 -5.71875 8.160156 -5.90625 8.609375 -6.28125 C 9.054688 -6.65625 9.28125 -7.1875 9.28125 -7.875 Z M 9.28125 -7.875" transform="translate(225.106 181.5)"/></g></g></g><g fill="#D9D9D9"><g><g><path d="M 11.03125 -2.296875 L 11.03125 0 L 1.46875 0 L 1.46875 -12.34375 L 10.796875 -12.34375 L 10.796875 -10.0625 L 4.296875 -10.0625 L 4.296875 -7.375 L 10.03125 -7.375 L 10.03125 -5.15625 L 4.296875 -5.15625 L 4.296875 -2.296875 Z M 11.03125 -2.296875" transform="translate(239.657 181.5)"/></g></g></g><g fill="#D9D9D9"><g><g><path d="M 5.515625 0.21875 C 4.546875 0.21875 3.601562 0.0859375 2.6875 -0.171875 C 1.78125 -0.441406 1.050781 -0.789062 0.5 -1.21875 L 1.46875 -3.375 C 2 -2.976562 2.628906 -2.660156 3.359375 -2.421875 C 4.085938 -2.191406 4.816406 -2.078125 5.546875 -2.078125 C 6.347656 -2.078125 6.941406 -2.195312 7.328125 -2.4375 C 7.722656 -2.6875 7.921875 -3.007812 7.921875 -3.40625 C 7.921875 -3.695312 7.804688 -3.9375 7.578125 -4.125 C 7.347656 -4.320312 7.050781 -4.476562 6.6875 -4.59375 C 6.332031 -4.71875 5.847656 -4.851562 5.234375 -5 C 4.296875 -5.21875 3.523438 -5.4375 2.921875 -5.65625 C 2.328125 -5.882812 1.8125 -6.242188 1.375 -6.734375 C 0.945312 -7.234375 0.734375 -7.894531 0.734375 -8.71875 C 0.734375 -9.4375 0.925781 -10.082031 1.3125 -10.65625 C 1.707031 -11.238281 2.296875 -11.703125 3.078125 -12.046875 C 3.859375 -12.390625 4.8125 -12.5625 5.9375 -12.5625 C 6.726562 -12.5625 7.5 -12.46875 8.25 -12.28125 C 9.007812 -12.09375 9.671875 -11.820312 10.234375 -11.46875 L 9.34375 -9.296875 C 8.207031 -9.941406 7.066406 -10.265625 5.921875 -10.265625 C 5.128906 -10.265625 4.539062 -10.132812 4.15625 -9.875 C 3.769531 -9.613281 3.578125 -9.273438 3.578125 -8.859375 C 3.578125 -8.429688 3.796875 -8.113281 4.234375 -7.90625 C 4.679688 -7.707031 5.359375 -7.503906 6.265625 -7.296875 C 7.203125 -7.078125 7.96875 -6.851562 8.5625 -6.625 C 9.164062 -6.40625 9.679688 -6.050781 10.109375 -5.5625 C 10.546875 -5.082031 10.765625 -4.429688 10.765625 -3.609375 C 10.765625 -2.910156 10.566406 -2.269531 10.171875 -1.6875 C 9.773438 -1.101562 9.179688 -0.640625 8.390625 -0.296875 C 7.609375 0.046875 6.648438 0.21875 5.515625 0.21875 Z M 5.515625 0.21875" transform="translate(165.207 205.5)"/></g></g></g><g fill="#D9D9D9"><g><g><path d="M 11.03125 -2.296875 L 11.03125 0 L 1.46875 0 L 1.46875 -12.34375 L 10.796875 -12.34375 L 10.796875 -10.0625 L 4.296875 -10.0625 L 4.296875 -7.375 L 10.03125 -7.375 L 10.03125 -5.15625 L 4.296875 -5.15625 L 4.296875 -2.296875 Z M 11.03125 -2.296875" transform="translate(178.048 205.5)"/></g></g></g><g fill="#D9D9D9"><g><g><path d="M 9.59375 -2.640625 L 3.859375 -2.640625 L 2.765625 0 L -0.15625 0 L 5.34375 -12.34375 L 8.171875 -12.34375 L 13.6875 0 L 10.6875 0 Z M 8.703125 -4.8125 L 6.734375 -9.546875 L 4.78125 -4.8125 Z M 8.703125 -4.8125" transform="translate(191.47 205.5)"/></g></g></g><g fill="#D9D9D9"><g><g><path d="M 9.328125 0 L 6.953125 -3.4375 L 4.328125 -3.4375 L 4.328125 0 L 1.46875 0 L 1.46875 -12.34375 L 6.8125 -12.34375 C 7.90625 -12.34375 8.851562 -12.160156 9.65625 -11.796875 C 10.457031 -11.429688 11.078125 -10.914062 11.515625 -10.25 C 11.953125 -9.582031 12.171875 -8.789062 12.171875 -7.875 C 12.171875 -6.945312 11.945312 -6.148438 11.5 -5.484375 C 11.0625 -4.828125 10.4375 -4.320312 9.625 -3.96875 L 12.40625 0 Z M 9.28125 -7.875 C 9.28125 -8.5625 9.054688 -9.085938 8.609375 -9.453125 C 8.160156 -9.828125 7.507812 -10.015625 6.65625 -10.015625 L 4.328125 -10.015625 L 4.328125 -5.71875 L 6.65625 -5.71875 C 7.507812 -5.71875 8.160156 -5.90625 8.609375 -6.28125 C 9.054688 -6.65625 9.28125 -7.1875 9.28125 -7.875 Z M 9.28125 -7.875" transform="translate(206.569 205.5)"/></g></g></g><g fill="#D9D9D9"><g><g><path d="M 7.375 0.21875 C 6.113281 0.21875 4.972656 -0.0507812 3.953125 -0.59375 C 2.941406 -1.144531 2.144531 -1.90625 1.5625 -2.875 C 0.976562 -3.851562 0.6875 -4.953125 0.6875 -6.171875 C 0.6875 -7.398438 0.976562 -8.5 1.5625 -9.46875 C 2.144531 -10.4375 2.941406 -11.191406 3.953125 -11.734375 C 4.972656 -12.285156 6.117188 -12.5625 7.390625 -12.5625 C 8.460938 -12.5625 9.429688 -12.375 10.296875 -12 C 11.160156 -11.625 11.882812 -11.082031 12.46875 -10.375 L 10.640625 -8.671875 C 9.804688 -9.640625 8.769531 -10.125 7.53125 -10.125 C 6.769531 -10.125 6.085938 -9.957031 5.484375 -9.625 C 4.890625 -9.289062 4.421875 -8.820312 4.078125 -8.21875 C 3.742188 -7.625 3.578125 -6.941406 3.578125 -6.171875 C 3.578125 -5.410156 3.742188 -4.726562 4.078125 -4.125 C 4.421875 -3.53125 4.890625 -3.0625 5.484375 -2.71875 C 6.085938 -2.382812 6.769531 -2.21875 7.53125 -2.21875 C 8.769531 -2.21875 9.804688 -2.707031 10.640625 -3.6875 L 12.46875 -2 C 11.882812 -1.28125 11.15625 -0.726562 10.28125 -0.34375 C 9.414062 0.03125 8.445312 0.21875 7.375 0.21875 Z M 7.375 0.21875" transform="translate(221.12 205.5)"/></g></g></g><g fill="#D9D9D9"><g><g><path d="M 12.796875 -12.34375 L 12.796875 0 L 9.9375 0 L 9.9375 -5.0625 L 4.328125 -5.0625 L 4.328125 0 L 1.46875 0 L 1.46875 -12.34375 L 4.328125 -12.34375 L 4.328125 -7.484375 L 9.9375 -7.484375 L 9.9375 -12.34375 Z M 12.796875 -12.34375" transform="translate(235.636 205.5)"/></g></g></g></svg>